<?xml version="1.0" standalone="no"?><!DOCTYPE svg PUBLIC "-//W3C//DTD SVG 1.1//EN" "http://www.w3.org/Graphics/SVG/1.1/DTD/svg11.dtd"><svg t="1596592044897" class="icon" viewBox="0 0 1024 1024" version="1.1" xmlns="http://www.w3.org/2000/svg" p-id="1368" xmlns:xlink="http://www.w3.org/1999/xlink" width="200" height="200"><defs><style type="text/css"></style></defs><path d="M41.195402 41.195402m211.862069 0l517.885058 0q211.862069 0 211.862069 211.862069l0 517.885058q0 211.862069-211.862069 211.862069l-517.885058 0q-211.862069 0-211.862069-211.862069l0-517.885058q0-211.862069 211.862069-211.862069Z" fill="#FFFFFF" p-id="1369"></path><path d="M770.942529 1024H253.057471a253.057471 253.057471 0 0 1-253.057471-253.057471V253.057471A253.057471 253.057471 0 0 1 253.057471 0h517.885058a253.057471 253.057471 0 0 1 253.057471 253.057471v517.885058a253.057471 253.057471 0 0 1-253.057471 253.057471zM253.057471 82.390805a170.666667 170.666667 0 0 0-170.666666 170.666666v517.885058a170.666667 170.666667 0 0 0 170.666666 170.666666h517.885058a170.666667 170.666667 0 0 0 170.666666-170.666666V253.057471a170.666667 170.666667 0 0 0-170.666666-170.666666z" fill="#8BAEF7" p-id="1370"></path></svg>